<?xml version="1.0" encoding="UTF-8" standalone="no"?>
<!DOCTYPE svg PUBLIC "-//W3C//DTD SVG 1.1//EN"
 "http://www.w3.org/Graphics/SVG/1.1/DTD/svg11.dtd">
<!-- Generated by graphviz version 12.2.1 (0)
 -->
<!-- Title: docstrings Pages: 1 -->
<svg width="202pt" height="217pt"
 viewBox="0.00 0.00 202.00 217.00" xmlns="http://www.w3.org/2000/svg" xmlns:xlink="http://www.w3.org/1999/xlink">
<g id="graph0" class="graph" transform="scale(1 1) rotate(0) translate(4 213)">
<title>docstrings</title>
<polygon fill="white" stroke="none" points="-4,4 -4,-213 198,-213 198,4 -4,4"/>
<!-- module4376118096 -->
<g id="node1" class="node">
<title>module4376118096</title>
<polygon fill="none" stroke="black" points="66.5,-172.5 66.5,-208.5 127.5,-208.5 127.5,-172.5 66.5,-172.5"/>
<text text-anchor="start" x="74.5" y="-186.45" font-family="Times,serif" font-weight="bold" font-size="14.00">Module</text>
</g>
<!-- module.Greeter4376118672 -->
<g id="node2" class="node">
<title>module.Greeter4376118672</title>
<polygon fill="none" stroke="black" points="63.5,-86.5 63.5,-135.5 130.5,-135.5 130.5,-86.5 63.5,-86.5"/>
<text text-anchor="start" x="71.5" y="-119.2" font-family="Times,serif" font-weight="bold" font-size="14.00">ClassDef</text>
<polyline fill="none" stroke="black" points="63.5,-111 130.5,-111"/>
<text text-anchor="start" x="76.75" y="-93.7" font-family="Times,serif" font-size="14.00">Greeter</text>
</g>
<!-- module4376118096&#45;&gt;module.Greeter4376118672 -->
<g id="edge1" class="edge">
<title>module4376118096&#45;&gt;module.Greeter4376118672</title>
<path fill="none" stroke="black" d="M97,-172.3C97,-164.94 97,-156.06 97,-147.41"/>
<polygon fill="black" stroke="black" points="100.5,-147.42 97,-137.42 93.5,-147.42 100.5,-147.42"/>
</g>
<!-- module.Greeter.__init__4375011088 -->
<g id="node3" class="node">
<title>module.Greeter.__init__4375011088</title>
<polygon fill="none" stroke="black" points="0,-0.5 0,-49.5 88,-49.5 88,-0.5 0,-0.5"/>
<text text-anchor="start" x="8" y="-33.2" font-family="Times,serif" font-weight="bold" font-size="14.00">FunctionDef</text>
<polyline fill="none" stroke="black" points="0,-25 88,-25"/>
<text text-anchor="start" x="21.5" y="-7.7" font-family="Times,serif" font-size="14.00">__init__</text>
</g>
<!-- module.Greeter4376118672&#45;&gt;module.Greeter.__init__4375011088 -->
<g id="edge2" class="edge">
<title>module.Greeter4376118672&#45;&gt;module.Greeter.__init__4375011088</title>
<path fill="none" stroke="black" d="M81.95,-86.15C76.75,-77.91 70.82,-68.5 65.21,-59.62"/>
<polygon fill="black" stroke="black" points="68.19,-57.78 59.89,-51.19 62.27,-61.51 68.19,-57.78"/>
</g>
<!-- module.Greeter.greet4379635600 -->
<g id="node4" class="node">
<title>module.Greeter.greet4379635600</title>
<polygon fill="none" stroke="black" points="106,-0.5 106,-49.5 194,-49.5 194,-0.5 106,-0.5"/>
<text text-anchor="start" x="114" y="-33.2" font-family="Times,serif" font-weight="bold" font-size="14.00">FunctionDef</text>
<polyline fill="none" stroke="black" points="106,-25 194,-25"/>
<text text-anchor="start" x="136.5" y="-7.7" font-family="Times,serif" font-size="14.00">greet</text>
</g>
<!-- module.Greeter4376118672&#45;&gt;module.Greeter.greet4379635600 -->
<g id="edge3" class="edge">
<title>module.Greeter4376118672&#45;&gt;module.Greeter.greet4379635600</title>
<path fill="none" stroke="black" d="M112.05,-86.15C117.25,-77.91 123.18,-68.5 128.79,-59.62"/>
<polygon fill="black" stroke="black" points="131.73,-61.51 134.11,-51.19 125.81,-57.78 131.73,-61.51"/>
</g>
</g>
</svg>
