<?xml version="1.0" encoding="UTF-8" standalone="no"?>
<!DOCTYPE svg PUBLIC "-//W3C//DTD SVG 1.1//EN"
 "http://www.w3.org/Graphics/SVG/1.1/DTD/svg11.dtd">
<!-- Generated by graphviz version 12.2.1 (0)
 -->
<!-- Title: ast_graph Pages: 1 -->
<svg width="1026pt" height="810pt"
 viewBox="0.00 0.00 1026.00 809.50" xmlns="http://www.w3.org/2000/svg" xmlns:xlink="http://www.w3.org/1999/xlink">
<g id="graph0" class="graph" transform="scale(1 1) rotate(0) translate(4 805.5)">
<title>ast_graph</title>
<polygon fill="white" stroke="none" points="-4,4 -4,-805.5 1022,-805.5 1022,4 -4,4"/>
<!-- module4351898704 -->
<g id="node1" class="node">
<title>module4351898704</title>
<polygon fill="none" stroke="black" points="412.5,-765 412.5,-801 473.5,-801 473.5,-765 412.5,-765"/>
<text text-anchor="start" x="420.5" y="-778.95" font-family="Times,serif" font-weight="bold" font-size="14.00">Module</text>
</g>
<!-- module.Greeter4351934992 -->
<g id="node2" class="node">
<title>module.Greeter4351934992</title>
<polygon fill="none" stroke="black" points="409.5,-679 409.5,-728 476.5,-728 476.5,-679 409.5,-679"/>
<text text-anchor="start" x="417.5" y="-711.7" font-family="Times,serif" font-weight="bold" font-size="14.00">ClassDef</text>
<polyline fill="none" stroke="black" points="409.5,-703.5 476.5,-703.5"/>
<text text-anchor="start" x="422.75" y="-686.2" font-family="Times,serif" font-size="14.00">Greeter</text>
</g>
<!-- module4351898704&#45;&gt;module.Greeter4351934992 -->
<g id="edge1" class="edge">
<title>module4351898704&#45;&gt;module.Greeter4351934992</title>
<path fill="none" stroke="black" d="M443,-764.8C443,-757.44 443,-748.56 443,-739.91"/>
<polygon fill="black" stroke="black" points="446.5,-739.92 443,-729.92 439.5,-739.92 446.5,-739.92"/>
</g>
<!-- module.Greeter.__init__4350189328 -->
<g id="node3" class="node">
<title>module.Greeter.__init__4350189328</title>
<polygon fill="none" stroke="black" points="319,-593 319,-642 407,-642 407,-593 319,-593"/>
<text text-anchor="start" x="327" y="-625.7" font-family="Times,serif" font-weight="bold" font-size="14.00">FunctionDef</text>
<polyline fill="none" stroke="black" points="319,-617.5 407,-617.5"/>
<text text-anchor="start" x="340.5" y="-600.2" font-family="Times,serif" font-size="14.00">__init__</text>
</g>
<!-- module.Greeter4351934992&#45;&gt;module.Greeter.__init__4350189328 -->
<g id="edge2" class="edge">
<title>module.Greeter4351934992&#45;&gt;module.Greeter.__init__4350189328</title>
<path fill="none" stroke="black" d="M420.29,-678.65C412.01,-669.96 402.51,-659.99 393.66,-650.7"/>
<polygon fill="black" stroke="black" points="396.24,-648.33 386.81,-643.5 391.17,-653.16 396.24,-648.33"/>
</g>
<!-- module.Greeter.greet4354911760 -->
<g id="node18" class="node">
<title>module.Greeter.greet4354911760</title>
<polygon fill="none" stroke="black" points="576,-593 576,-642 664,-642 664,-593 576,-593"/>
<text text-anchor="start" x="584" y="-625.7" font-family="Times,serif" font-weight="bold" font-size="14.00">FunctionDef</text>
<polyline fill="none" stroke="black" points="576,-617.5 664,-617.5"/>
<text text-anchor="start" x="606.5" y="-600.2" font-family="Times,serif" font-size="14.00">greet</text>
</g>
<!-- module.Greeter4351934992&#45;&gt;module.Greeter.greet4354911760 -->
<g id="edge17" class="edge">
<title>module.Greeter4351934992&#45;&gt;module.Greeter.greet4354911760</title>
<path fill="none" stroke="black" d="M476.71,-686.5C501.72,-674.63 536.36,-658.19 565.32,-644.45"/>
<polygon fill="black" stroke="black" points="566.8,-647.62 574.33,-640.17 563.8,-641.3 566.8,-647.62"/>
</g>
<!-- module.Greeter.__init__.args
defaults4350189264 -->
<g id="node4" class="node">
<title>module.Greeter.__init__.args
defaults4350189264</title>
<polygon fill="none" stroke="black" points="138.88,-490.5 138.88,-556 217.12,-556 217.12,-490.5 138.88,-490.5"/>
<text text-anchor="start" x="146.88" y="-539.7" font-family="Times,serif" font-weight="bold" font-size="14.00">arguments</text>
<polyline fill="none" stroke="black" points="138.88,-531.5 217.12,-531.5"/>
<text text-anchor="start" x="156.62" y="-514.2" font-family="Times,serif" font-size="14.00">args</text>
<text text-anchor="start" x="156.62" y="-497.7" font-family="Times,serif" font-size="14.00">defaults</text>
</g>
<!-- module.Greeter.__init__4350189328&#45;&gt;module.Greeter.__init__.args
defaults4350189264 -->
<g id="edge3" class="edge">
<title>module.Greeter.__init__4350189328&#45;&gt;module.Greeter.__init__.args
defaults4350189264</title>
<path fill="none" stroke="black" d="M318.69,-594.4C291.27,-580.73 256.01,-563.15 227.65,-549.01"/>
<polygon fill="black" stroke="black" points="229.41,-545.97 218.9,-544.64 226.29,-552.24 229.41,-545.97"/>
</g>
<!-- module.Greeter.__init__.enthusiasm4354912592 -->
<g id="node10" class="node">
<title>module.Greeter.__init__.enthusiasm4354912592</title>
<polygon fill="none" stroke="black" points="278.25,-498.75 278.25,-547.75 355.75,-547.75 355.75,-498.75 278.25,-498.75"/>
<text text-anchor="start" x="297.88" y="-531.45" font-family="Times,serif" font-weight="bold" font-size="14.00">Assign</text>
<polyline fill="none" stroke="black" points="278.25,-523.25 355.75,-523.25"/>
<text text-anchor="start" x="286.25" y="-505.95" font-family="Times,serif" font-size="14.00">enthusiasm</text>
</g>
<!-- module.Greeter.__init__4350189328&#45;&gt;module.Greeter.__init__.enthusiasm4354912592 -->
<g id="edge9" class="edge">
<title>module.Greeter.__init__4350189328&#45;&gt;module.Greeter.__init__.enthusiasm4354912592</title>
<path fill="none" stroke="black" d="M351.15,-592.74C345.94,-582.28 339.71,-569.79 334.01,-558.36"/>
<polygon fill="black" stroke="black" points="337.24,-556.99 329.64,-549.6 330.97,-560.11 337.24,-556.99"/>
</g>
<!-- module.Greeter.__init__.None4354911952 -->
<g id="node17" class="node">
<title>module.Greeter.__init__.None4354911952</title>
<polygon fill="none" stroke="black" points="373.75,-498.75 373.75,-547.75 442.25,-547.75 442.25,-498.75 373.75,-498.75"/>
<text text-anchor="start" x="381.75" y="-531.45" font-family="Times,serif" font-weight="bold" font-size="14.00">Constant</text>
<polyline fill="none" stroke="black" points="373.75,-523.25 442.25,-523.25"/>
<text text-anchor="start" x="393.38" y="-505.95" font-family="Times,serif" font-size="14.00">None</text>
</g>
<!-- module.Greeter.__init__4350189328&#45;&gt;module.Greeter.__init__.None4354911952 -->
<g id="edge16" class="edge">
<title>module.Greeter.__init__4350189328&#45;&gt;module.Greeter.__init__.None4354911952</title>
<path fill="none" stroke="black" d="M374.59,-592.74C379.69,-582.28 385.79,-569.79 391.36,-558.36"/>
<polygon fill="black" stroke="black" points="394.39,-560.13 395.63,-549.61 388.1,-557.06 394.39,-560.13"/>
</g>
<!-- module.Greeter.__init__.args
defaults.self4354913168 -->
<g id="node5" class="node">
<title>module.Greeter.__init__.args
defaults.self4354913168</title>
<polygon fill="none" stroke="black" points="0,-404.5 0,-453.5 54,-453.5 54,-404.5 0,-404.5"/>
<text text-anchor="start" x="17" y="-437.2" font-family="Times,serif" font-weight="bold" font-size="14.00">arg</text>
<polyline fill="none" stroke="black" points="0,-429 53.5,-429"/>
<text text-anchor="start" x="17" y="-411.7" font-family="Times,serif" font-size="14.00">self</text>
</g>
<!-- module.Greeter.__init__.args
defaults4350189264&#45;&gt;module.Greeter.__init__.args
defaults.self4354913168 -->
<g id="edge4" class="edge">
<title>module.Greeter.__init__.args
defaults4350189264&#45;&gt;module.Greeter.__init__.args
defaults.self4354913168</title>
<path fill="none" stroke="black" d="M138.57,-499.54C118.41,-487.77 93.34,-472.9 64.07,-454.57"/>
<polygon fill="black" stroke="black" points="66.03,-451.67 55.7,-449.3 62.3,-457.59 66.03,-451.67"/>
</g>
<!-- module.Greeter.__init__.args
defaults.enthusiasm4354913104 -->
<g id="node6" class="node">
<title>module.Greeter.__init__.args
defaults.enthusiasm4354913104</title>
<polygon fill="none" stroke="black" points="72.25,-404.5 72.25,-453.5 149.75,-453.5 149.75,-404.5 72.25,-404.5"/>
<text text-anchor="start" x="101.25" y="-437.2" font-family="Times,serif" font-weight="bold" font-size="14.00">arg</text>
<polyline fill="none" stroke="black" points="72.25,-429 149.75,-429"/>
<text text-anchor="start" x="80.25" y="-411.7" font-family="Times,serif" font-size="14.00">enthusiasm</text>
</g>
<!-- module.Greeter.__init__.args
defaults4350189264&#45;&gt;module.Greeter.__init__.args
defaults.enthusiasm4354913104 -->
<g id="edge5" class="edge">
<title>module.Greeter.__init__.args
defaults4350189264&#45;&gt;module.Greeter.__init__.args
defaults.enthusiasm4354913104</title>
<path fill="none" stroke="black" d="M154.75,-490.24C148.37,-481.45 141.44,-471.91 135.01,-463.06"/>
<polygon fill="black" stroke="black" points="137.89,-461.06 129.18,-455.03 132.22,-465.18 137.89,-461.06"/>
</g>
<!-- module.Greeter.__init__.args
defaults.14354912784 -->
<g id="node9" class="node">
<title>module.Greeter.__init__.args
defaults.14354912784</title>
<polygon fill="none" stroke="black" points="167.75,-404.5 167.75,-453.5 236.25,-453.5 236.25,-404.5 167.75,-404.5"/>
<text text-anchor="start" x="175.75" y="-437.2" font-family="Times,serif" font-weight="bold" font-size="14.00">Constant</text>
<polyline fill="none" stroke="black" points="167.75,-429 236.25,-429"/>
<text text-anchor="start" x="198.62" y="-411.7" font-family="Times,serif" font-size="14.00">1</text>
</g>
<!-- module.Greeter.__init__.args
defaults4350189264&#45;&gt;module.Greeter.__init__.args
defaults.14354912784 -->
<g id="edge8" class="edge">
<title>module.Greeter.__init__.args
defaults4350189264&#45;&gt;module.Greeter.__init__.args
defaults.14354912784</title>
<path fill="none" stroke="black" d="M186.33,-490.24C188.47,-482.02 190.78,-473.12 192.96,-464.76"/>
<polygon fill="black" stroke="black" points="196.3,-465.83 195.43,-455.27 189.52,-464.06 196.3,-465.83"/>
</g>
<!-- module.Greeter.__init__.args
defaults.enthusiasm.int4354913040 -->
<g id="node7" class="node">
<title>module.Greeter.__init__.args
defaults.enthusiasm.int4354913040</title>
<polygon fill="none" stroke="black" points="84,-318.5 84,-367.5 138,-367.5 138,-318.5 84,-318.5"/>
<text text-anchor="start" x="93.5" y="-351.2" font-family="Times,serif" font-weight="bold" font-size="14.00">Name</text>
<polyline fill="none" stroke="black" points="84,-343 137.5,-343"/>
<text text-anchor="start" x="103.62" y="-325.7" font-family="Times,serif" font-size="14.00">int</text>
</g>
<!-- module.Greeter.__init__.args
defaults.enthusiasm4354913104&#45;&gt;module.Greeter.__init__.args
defaults.enthusiasm.int4354913040 -->
<g id="edge6" class="edge">
<title>module.Greeter.__init__.args
defaults.enthusiasm4354913104&#45;&gt;module.Greeter.__init__.args
defaults.enthusiasm.int4354913040</title>
<path fill="none" stroke="black" d="M111,-404.15C111,-396.44 111,-387.71 111,-379.35"/>
<polygon fill="black" stroke="black" points="114.5,-379.42 111,-369.42 107.5,-379.42 114.5,-379.42"/>
</g>
<!-- module.Greeter.__init__.args
defaults.enthusiasm.int.Load4351744336 -->
<g id="node8" class="node">
<title>module.Greeter.__init__.args
defaults.enthusiasm.int.Load4351744336</title>
<polygon fill="none" stroke="black" points="84,-245.5 84,-281.5 138,-281.5 138,-245.5 84,-245.5"/>
<text text-anchor="start" x="96" y="-259.45" font-family="Times,serif" font-weight="bold" font-size="14.00">Load</text>
</g>
<!-- module.Greeter.__init__.args
defaults.enthusiasm.int4354913040&#45;&gt;module.Greeter.__init__.args
defaults.enthusiasm.int.Load4351744336 -->
<g id="edge7" class="edge">
<title>module.Greeter.__init__.args
defaults.enthusiasm.int4354913040&#45;&gt;module.Greeter.__init__.args
defaults.enthusiasm.int.Load4351744336</title>
<path fill="none" stroke="black" d="M111,-318.33C111,-310.43 111,-301.55 111,-293.3"/>
<polygon fill="black" stroke="black" points="114.5,-293.39 111,-283.39 107.5,-293.39 114.5,-293.39"/>
</g>
<!-- module.Greeter.__init__.enthusiasm.enthusiasm4354912464 -->
<g id="node11" class="node">
<title>module.Greeter.__init__.enthusiasm.enthusiasm4354912464</title>
<polygon fill="none" stroke="black" points="254.25,-404.5 254.25,-453.5 331.75,-453.5 331.75,-404.5 254.25,-404.5"/>
<text text-anchor="start" x="266" y="-437.2" font-family="Times,serif" font-weight="bold" font-size="14.00">Attribute</text>
<polyline fill="none" stroke="black" points="254.25,-429 331.75,-429"/>
<text text-anchor="start" x="262.25" y="-411.7" font-family="Times,serif" font-size="14.00">enthusiasm</text>
</g>
<!-- module.Greeter.__init__.enthusiasm4354912592&#45;&gt;module.Greeter.__init__.enthusiasm.enthusiasm4354912464 -->
<g id="edge10" class="edge">
<title>module.Greeter.__init__.enthusiasm4354912592&#45;&gt;module.Greeter.__init__.enthusiasm.enthusiasm4354912464</title>
<path fill="none" stroke="black" d="M310.82,-498.49C308.15,-488.24 304.98,-476.05 302.06,-464.81"/>
<polygon fill="black" stroke="black" points="305.53,-464.26 299.62,-455.46 298.75,-466.02 305.53,-464.26"/>
</g>
<!-- module.Greeter.__init__.enthusiasm.enthusiasm4354912144 -->
<g id="node15" class="node">
<title>module.Greeter.__init__.enthusiasm.enthusiasm4354912144</title>
<polygon fill="none" stroke="black" points="350.25,-404.5 350.25,-453.5 427.75,-453.5 427.75,-404.5 350.25,-404.5"/>
<text text-anchor="start" x="371.75" y="-437.2" font-family="Times,serif" font-weight="bold" font-size="14.00">Name</text>
<polyline fill="none" stroke="black" points="350.25,-429 427.75,-429"/>
<text text-anchor="start" x="358.25" y="-411.7" font-family="Times,serif" font-size="14.00">enthusiasm</text>
</g>
<!-- module.Greeter.__init__.enthusiasm4354912592&#45;&gt;module.Greeter.__init__.enthusiasm.enthusiasm4354912144 -->
<g id="edge14" class="edge">
<title>module.Greeter.__init__.enthusiasm4354912592&#45;&gt;module.Greeter.__init__.enthusiasm.enthusiasm4354912144</title>
<path fill="none" stroke="black" d="M335.54,-498.49C343.96,-487.71 354.05,-474.77 363.2,-463.06"/>
<polygon fill="black" stroke="black" points="365.95,-465.23 369.34,-455.19 360.43,-460.92 365.95,-465.23"/>
</g>
<!-- module.Greeter.__init__.enthusiasm.enthusiasm.self4354912400 -->
<g id="node12" class="node">
<title>module.Greeter.__init__.enthusiasm.enthusiasm.self4354912400</title>
<polygon fill="none" stroke="black" points="206,-318.5 206,-367.5 260,-367.5 260,-318.5 206,-318.5"/>
<text text-anchor="start" x="215.5" y="-351.2" font-family="Times,serif" font-weight="bold" font-size="14.00">Name</text>
<polyline fill="none" stroke="black" points="206,-343 259.5,-343"/>
<text text-anchor="start" x="223" y="-325.7" font-family="Times,serif" font-size="14.00">self</text>
</g>
<!-- module.Greeter.__init__.enthusiasm.enthusiasm4354912464&#45;&gt;module.Greeter.__init__.enthusiasm.enthusiasm.self4354912400 -->
<g id="edge11" class="edge">
<title>module.Greeter.__init__.enthusiasm.enthusiasm4354912464&#45;&gt;module.Greeter.__init__.enthusiasm.enthusiasm.self4354912400</title>
<path fill="none" stroke="black" d="M275.97,-404.15C269.95,-395.73 263.07,-386.1 256.61,-377.05"/>
<polygon fill="black" stroke="black" points="259.62,-375.24 250.96,-369.14 253.92,-379.31 259.62,-375.24"/>
</g>
<!-- module.Greeter.__init__.enthusiasm.enthusiasm.Store4351744464 -->
<g id="node14" class="node">
<title>module.Greeter.__init__.enthusiasm.enthusiasm.Store4351744464</title>
<polygon fill="none" stroke="black" points="278,-325 278,-361 332,-361 332,-325 278,-325"/>
<text text-anchor="start" x="289.5" y="-338.95" font-family="Times,serif" font-weight="bold" font-size="14.00">Store</text>
</g>
<!-- module.Greeter.__init__.enthusiasm.enthusiasm4354912464&#45;&gt;module.Greeter.__init__.enthusiasm.enthusiasm.Store4351744464 -->
<g id="edge13" class="edge">
<title>module.Greeter.__init__.enthusiasm.enthusiasm4354912464&#45;&gt;module.Greeter.__init__.enthusiasm.enthusiasm.Store4351744464</title>
<path fill="none" stroke="black" d="M296.41,-404.15C297.8,-394.39 299.43,-383.01 300.89,-372.79"/>
<polygon fill="black" stroke="black" points="304.34,-373.39 302.29,-362.99 297.41,-372.4 304.34,-373.39"/>
</g>
<!-- module.Greeter.__init__.enthusiasm.enthusiasm.self.Load4351744336 -->
<g id="node13" class="node">
<title>module.Greeter.__init__.enthusiasm.enthusiasm.self.Load4351744336</title>
<polygon fill="none" stroke="black" points="206,-245.5 206,-281.5 260,-281.5 260,-245.5 206,-245.5"/>
<text text-anchor="start" x="218" y="-259.45" font-family="Times,serif" font-weight="bold" font-size="14.00">Load</text>
</g>
<!-- module.Greeter.__init__.enthusiasm.enthusiasm.self4354912400&#45;&gt;module.Greeter.__init__.enthusiasm.enthusiasm.self.Load4351744336 -->
<g id="edge12" class="edge">
<title>module.Greeter.__init__.enthusiasm.enthusiasm.self4354912400&#45;&gt;module.Greeter.__init__.enthusiasm.enthusiasm.self.Load4351744336</title>
<path fill="none" stroke="black" d="M233,-318.33C233,-310.43 233,-301.55 233,-293.3"/>
<polygon fill="black" stroke="black" points="236.5,-293.39 233,-283.39 229.5,-293.39 236.5,-293.39"/>
</g>
<!-- module.Greeter.__init__.enthusiasm.enthusiasm.Load4351744336 -->
<g id="node16" class="node">
<title>module.Greeter.__init__.enthusiasm.enthusiasm.Load4351744336</title>
<polygon fill="none" stroke="black" points="362,-325 362,-361 416,-361 416,-325 362,-325"/>
<text text-anchor="start" x="374" y="-338.95" font-family="Times,serif" font-weight="bold" font-size="14.00">Load</text>
</g>
<!-- module.Greeter.__init__.enthusiasm.enthusiasm4354912144&#45;&gt;module.Greeter.__init__.enthusiasm.enthusiasm.Load4351744336 -->
<g id="edge15" class="edge">
<title>module.Greeter.__init__.enthusiasm.enthusiasm4354912144&#45;&gt;module.Greeter.__init__.enthusiasm.enthusiasm.Load4351744336</title>
<path fill="none" stroke="black" d="M389,-404.15C389,-394.39 389,-383.01 389,-372.79"/>
<polygon fill="black" stroke="black" points="392.5,-373.01 389,-363.01 385.5,-373.01 392.5,-373.01"/>
</g>
<!-- module.Greeter.greet.args
defaults4354911632 -->
<g id="node19" class="node">
<title>module.Greeter.greet.args
defaults4354911632</title>
<polygon fill="none" stroke="black" points="517.88,-490.5 517.88,-556 596.12,-556 596.12,-490.5 517.88,-490.5"/>
<text text-anchor="start" x="525.88" y="-539.7" font-family="Times,serif" font-weight="bold" font-size="14.00">arguments</text>
<polyline fill="none" stroke="black" points="517.88,-531.5 596.12,-531.5"/>
<text text-anchor="start" x="535.62" y="-514.2" font-family="Times,serif" font-size="14.00">args</text>
<text text-anchor="start" x="535.62" y="-497.7" font-family="Times,serif" font-size="14.00">defaults</text>
</g>
<!-- module.Greeter.greet4354911760&#45;&gt;module.Greeter.greet.args
defaults4354911632 -->
<g id="edge18" class="edge">
<title>module.Greeter.greet4354911760&#45;&gt;module.Greeter.greet.args
defaults4354911632</title>
<path fill="none" stroke="black" d="M603.78,-592.74C598.15,-584.5 591.66,-575 585.35,-565.76"/>
<polygon fill="black" stroke="black" points="588.25,-563.81 579.72,-557.52 582.47,-567.75 588.25,-563.81"/>
</g>
<!-- module.Greeter.greet.Return4354910608 -->
<g id="node25" class="node">
<title>module.Greeter.greet.Return4354910608</title>
<polygon fill="none" stroke="black" points="654.38,-505.25 654.38,-541.25 711.62,-541.25 711.62,-505.25 654.38,-505.25"/>
<text text-anchor="start" x="662.38" y="-519.2" font-family="Times,serif" font-weight="bold" font-size="14.00">Return</text>
</g>
<!-- module.Greeter.greet4354911760&#45;&gt;module.Greeter.greet.Return4354910608 -->
<g id="edge24" class="edge">
<title>module.Greeter.greet4354911760&#45;&gt;module.Greeter.greet.Return4354910608</title>
<path fill="none" stroke="black" d="M636.22,-592.74C644.94,-579.98 655.71,-564.2 664.72,-551.01"/>
<polygon fill="black" stroke="black" points="667.61,-553 670.35,-542.77 661.82,-549.05 667.61,-553"/>
</g>
<!-- module.Greeter.greet.str4354913552 -->
<g id="node39" class="node">
<title>module.Greeter.greet.str4354913552</title>
<polygon fill="none" stroke="black" points="754,-498.75 754,-547.75 808,-547.75 808,-498.75 754,-498.75"/>
<text text-anchor="start" x="763.5" y="-531.45" font-family="Times,serif" font-weight="bold" font-size="14.00">Name</text>
<polyline fill="none" stroke="black" points="754,-523.25 807.5,-523.25"/>
<text text-anchor="start" x="774" y="-505.95" font-family="Times,serif" font-size="14.00">str</text>
</g>
<!-- module.Greeter.greet4354911760&#45;&gt;module.Greeter.greet.str4354913552 -->
<g id="edge38" class="edge">
<title>module.Greeter.greet4354911760&#45;&gt;module.Greeter.greet.str4354913552</title>
<path fill="none" stroke="black" d="M661.88,-592.5C687.32,-577.93 719.49,-559.49 743.99,-545.46"/>
<polygon fill="black" stroke="black" points="745.73,-548.49 752.67,-540.49 742.25,-542.42 745.73,-548.49"/>
</g>
<!-- module.Greeter.greet.args
defaults.self4354911376 -->
<g id="node20" class="node">
<title>module.Greeter.greet.args
defaults.self4354911376</title>
<polygon fill="none" stroke="black" points="446,-404.5 446,-453.5 500,-453.5 500,-404.5 446,-404.5"/>
<text text-anchor="start" x="463" y="-437.2" font-family="Times,serif" font-weight="bold" font-size="14.00">arg</text>
<polyline fill="none" stroke="black" points="446,-429 499.5,-429"/>
<text text-anchor="start" x="463" y="-411.7" font-family="Times,serif" font-size="14.00">self</text>
</g>
<!-- module.Greeter.greet.args
defaults4354911632&#45;&gt;module.Greeter.greet.args
defaults.self4354911376 -->
<g id="edge19" class="edge">
<title>module.Greeter.greet.args
defaults4354911632&#45;&gt;module.Greeter.greet.args
defaults.self4354911376</title>
<path fill="none" stroke="black" d="M527.86,-490.24C519.6,-481.17 510.6,-471.3 502.33,-462.22"/>
<polygon fill="black" stroke="black" points="505.01,-459.96 495.69,-454.92 499.84,-464.67 505.01,-459.96"/>
</g>
<!-- module.Greeter.greet.args
defaults.name4354911248 -->
<g id="node21" class="node">
<title>module.Greeter.greet.args
defaults.name4354911248</title>
<polygon fill="none" stroke="black" points="518,-404.5 518,-453.5 572,-453.5 572,-404.5 518,-404.5"/>
<text text-anchor="start" x="535.25" y="-437.2" font-family="Times,serif" font-weight="bold" font-size="14.00">arg</text>
<polyline fill="none" stroke="black" points="518,-429 572,-429"/>
<text text-anchor="start" x="530" y="-411.7" font-family="Times,serif" font-size="14.00">name</text>
</g>
<!-- module.Greeter.greet.args
defaults4354911632&#45;&gt;module.Greeter.greet.args
defaults.name4354911248 -->
<g id="edge20" class="edge">
<title>module.Greeter.greet.args
defaults4354911632&#45;&gt;module.Greeter.greet.args
defaults.name4354911248</title>
<path fill="none" stroke="black" d="M552.84,-490.24C551.78,-482.11 550.64,-473.33 549.56,-465.05"/>
<polygon fill="black" stroke="black" points="553.05,-464.77 548.29,-455.3 546.11,-465.67 553.05,-464.77"/>
</g>
<!-- module.Greeter.greet.args
defaults.&quot;World&quot;4354910800 -->
<g id="node24" class="node">
<title>module.Greeter.greet.args
defaults.&quot;World&quot;4354910800</title>
<polygon fill="none" stroke="black" points="589.75,-404.5 589.75,-453.5 658.25,-453.5 658.25,-404.5 589.75,-404.5"/>
<text text-anchor="start" x="597.75" y="-437.2" font-family="Times,serif" font-weight="bold" font-size="14.00">Constant</text>
<polyline fill="none" stroke="black" points="589.75,-429 658.25,-429"/>
<text text-anchor="start" x="600.75" y="-411.7" font-family="Times,serif" font-size="14.00">&quot;World&quot;</text>
</g>
<!-- module.Greeter.greet.args
defaults4354911632&#45;&gt;module.Greeter.greet.args
defaults.&quot;World&quot;4354910800 -->
<g id="edge23" class="edge">
<title>module.Greeter.greet.args
defaults4354911632&#45;&gt;module.Greeter.greet.args
defaults.&quot;World&quot;4354910800</title>
<path fill="none" stroke="black" d="M580.25,-490.24C586.63,-481.45 593.56,-471.91 599.99,-463.06"/>
<polygon fill="black" stroke="black" points="602.78,-465.18 605.82,-455.03 597.11,-461.06 602.78,-465.18"/>
</g>
<!-- module.Greeter.greet.args
defaults.name.str4354911120 -->
<g id="node22" class="node">
<title>module.Greeter.greet.args
defaults.name.str4354911120</title>
<polygon fill="none" stroke="black" points="508,-318.5 508,-367.5 562,-367.5 562,-318.5 508,-318.5"/>
<text text-anchor="start" x="517.5" y="-351.2" font-family="Times,serif" font-weight="bold" font-size="14.00">Name</text>
<polyline fill="none" stroke="black" points="508,-343 561.5,-343"/>
<text text-anchor="start" x="528" y="-325.7" font-family="Times,serif" font-size="14.00">str</text>
</g>
<!-- module.Greeter.greet.args
defaults.name4354911248&#45;&gt;module.Greeter.greet.args
defaults.name.str4354911120 -->
<g id="edge21" class="edge">
<title>module.Greeter.greet.args
defaults.name4354911248&#45;&gt;module.Greeter.greet.args
defaults.name.str4354911120</title>
<path fill="none" stroke="black" d="M542.16,-404.15C541.23,-396.35 540.18,-387.51 539.17,-379.06"/>
<polygon fill="black" stroke="black" points="542.68,-378.93 538.02,-369.41 535.73,-379.75 542.68,-378.93"/>
</g>
<!-- module.Greeter.greet.args
defaults.name.str.Load4351744336 -->
<g id="node23" class="node">
<title>module.Greeter.greet.args
defaults.name.str.Load4351744336</title>
<polygon fill="none" stroke="black" points="508,-245.5 508,-281.5 562,-281.5 562,-245.5 508,-245.5"/>
<text text-anchor="start" x="520" y="-259.45" font-family="Times,serif" font-weight="bold" font-size="14.00">Load</text>
</g>
<!-- module.Greeter.greet.args
defaults.name.str4354911120&#45;&gt;module.Greeter.greet.args
defaults.name.str.Load4351744336 -->
<g id="edge22" class="edge">
<title>module.Greeter.greet.args
defaults.name.str4354911120&#45;&gt;module.Greeter.greet.args
defaults.name.str.Load4351744336</title>
<path fill="none" stroke="black" d="M535,-318.33C535,-310.43 535,-301.55 535,-293.3"/>
<polygon fill="black" stroke="black" points="538.5,-293.39 535,-283.39 531.5,-293.39 538.5,-293.39"/>
</g>
<!-- module.Greeter.greet.Return.JoinedStr4354910544 -->
<g id="node26" class="node">
<title>module.Greeter.greet.Return.JoinedStr4354910544</title>
<polygon fill="none" stroke="black" points="675.88,-411 675.88,-447 748.12,-447 748.12,-411 675.88,-411"/>
<text text-anchor="start" x="683.88" y="-424.95" font-family="Times,serif" font-weight="bold" font-size="14.00">JoinedStr</text>
</g>
<!-- module.Greeter.greet.Return4354910608&#45;&gt;module.Greeter.greet.Return.JoinedStr4354910544 -->
<g id="edge25" class="edge">
<title>module.Greeter.greet.Return4354910608&#45;&gt;module.Greeter.greet.Return.JoinedStr4354910544</title>
<path fill="none" stroke="black" d="M688.45,-504.9C692.59,-491.76 698.35,-473.42 703.14,-458.19"/>
<polygon fill="black" stroke="black" points="706.46,-459.31 706.12,-448.72 699.78,-457.21 706.46,-459.31"/>
</g>
<!-- module.Greeter.greet.Return.JoinedStr.&quot;Hello, &quot;4354910416 -->
<g id="node27" class="node">
<title>module.Greeter.greet.Return.JoinedStr.&quot;Hello, &quot;4354910416</title>
<polygon fill="none" stroke="black" points="579.75,-318.5 579.75,-367.5 648.25,-367.5 648.25,-318.5 579.75,-318.5"/>
<text text-anchor="start" x="587.75" y="-351.2" font-family="Times,serif" font-weight="bold" font-size="14.00">Constant</text>
<polyline fill="none" stroke="black" points="579.75,-343 648.25,-343"/>
<text text-anchor="start" x="589.25" y="-325.7" font-family="Times,serif" font-size="14.00">&quot;Hello, &quot;</text>
</g>
<!-- module.Greeter.greet.Return.JoinedStr4354910544&#45;&gt;module.Greeter.greet.Return.JoinedStr.&quot;Hello, &quot;4354910416 -->
<g id="edge26" class="edge">
<title>module.Greeter.greet.Return.JoinedStr4354910544&#45;&gt;module.Greeter.greet.Return.JoinedStr.&quot;Hello, &quot;4354910416</title>
<path fill="none" stroke="black" d="M691.69,-410.6C679.72,-400.33 664.21,-387.03 650.2,-375.03"/>
<polygon fill="black" stroke="black" points="652.73,-372.59 642.86,-368.74 648.18,-377.9 652.73,-372.59"/>
</g>
<!-- module.Greeter.greet.Return.JoinedStr.FormattedValue4354910288 -->
<g id="node28" class="node">
<title>module.Greeter.greet.Return.JoinedStr.FormattedValue4354910288</title>
<polygon fill="none" stroke="black" points="666.38,-325 666.38,-361 777.62,-361 777.62,-325 666.38,-325"/>
<text text-anchor="start" x="674.38" y="-338.95" font-family="Times,serif" font-weight="bold" font-size="14.00">FormattedValue</text>
</g>
<!-- module.Greeter.greet.Return.JoinedStr4354910544&#45;&gt;module.Greeter.greet.Return.JoinedStr.FormattedValue4354910288 -->
<g id="edge27" class="edge">
<title>module.Greeter.greet.Return.JoinedStr4354910544&#45;&gt;module.Greeter.greet.Return.JoinedStr.FormattedValue4354910288</title>
<path fill="none" stroke="black" d="M714.07,-410.6C715.37,-399.67 717.08,-385.32 718.58,-372.73"/>
<polygon fill="black" stroke="black" points="722.04,-373.23 719.75,-362.89 715.09,-372.4 722.04,-373.23"/>
</g>
<!-- module.Greeter.greet.Return.JoinedStr.FormattedValue4354909968 -->
<g id="node31" class="node">
<title>module.Greeter.greet.Return.JoinedStr.FormattedValue4354909968</title>
<polygon fill="none" stroke="black" points="809.38,-325 809.38,-361 920.62,-361 920.62,-325 809.38,-325"/>
<text text-anchor="start" x="817.38" y="-338.95" font-family="Times,serif" font-weight="bold" font-size="14.00">FormattedValue</text>
</g>
<!-- module.Greeter.greet.Return.JoinedStr4354910544&#45;&gt;module.Greeter.greet.Return.JoinedStr.FormattedValue4354909968 -->
<g id="edge30" class="edge">
<title>module.Greeter.greet.Return.JoinedStr4354910544&#45;&gt;module.Greeter.greet.Return.JoinedStr.FormattedValue4354909968</title>
<path fill="none" stroke="black" d="M743.7,-410.6C766.78,-397.92 798.26,-380.64 823.36,-366.86"/>
<polygon fill="black" stroke="black" points="824.93,-369.99 832.01,-362.11 821.56,-363.86 824.93,-369.99"/>
</g>
<!-- module.Greeter.greet.Return.JoinedStr.FormattedValue.name4354910224 -->
<g id="node29" class="node">
<title>module.Greeter.greet.Return.JoinedStr.FormattedValue.name4354910224</title>
<polygon fill="none" stroke="black" points="688,-245.5 688,-281.5 742,-281.5 742,-245.5 688,-245.5"/>
<text text-anchor="start" x="697.5" y="-259.45" font-family="Times,serif" font-weight="bold" font-size="14.00">Name</text>
</g>
<!-- module.Greeter.greet.Return.JoinedStr.FormattedValue4354910288&#45;&gt;module.Greeter.greet.Return.JoinedStr.FormattedValue.name4354910224 -->
<g id="edge28" class="edge">
<title>module.Greeter.greet.Return.JoinedStr.FormattedValue4354910288&#45;&gt;module.Greeter.greet.Return.JoinedStr.FormattedValue.name4354910224</title>
<path fill="none" stroke="black" d="M720.45,-324.8C719.61,-315.53 718.55,-303.86 717.6,-293.25"/>
<polygon fill="black" stroke="black" points="721.1,-293.07 716.71,-283.43 714.12,-293.7 721.1,-293.07"/>
</g>
<!-- module.Greeter.greet.Return.JoinedStr.FormattedValue.name.Load4351744336 -->
<g id="node30" class="node">
<title>module.Greeter.greet.Return.JoinedStr.FormattedValue.name.Load4351744336</title>
<polygon fill="none" stroke="black" points="686,-166 686,-202 740,-202 740,-166 686,-166"/>
<text text-anchor="start" x="698" y="-179.95" font-family="Times,serif" font-weight="bold" font-size="14.00">Load</text>
</g>
<!-- module.Greeter.greet.Return.JoinedStr.FormattedValue.name4354910224&#45;&gt;module.Greeter.greet.Return.JoinedStr.FormattedValue.name.Load4351744336 -->
<g id="edge29" class="edge">
<title>module.Greeter.greet.Return.JoinedStr.FormattedValue.name4354910224&#45;&gt;module.Greeter.greet.Return.JoinedStr.FormattedValue.name.Load4351744336</title>
<path fill="none" stroke="black" d="M714.56,-245.3C714.32,-236.03 714.02,-224.36 713.74,-213.75"/>
<polygon fill="black" stroke="black" points="717.25,-213.84 713.49,-203.93 710.25,-214.02 717.25,-213.84"/>
</g>
<!-- module.Greeter.greet.Return.JoinedStr.FormattedValue.BinOp4354909904 -->
<g id="node32" class="node">
<title>module.Greeter.greet.Return.JoinedStr.FormattedValue.BinOp4354909904</title>
<polygon fill="none" stroke="black" points="839.5,-245.5 839.5,-281.5 894.5,-281.5 894.5,-245.5 839.5,-245.5"/>
<text text-anchor="start" x="847.5" y="-259.45" font-family="Times,serif" font-weight="bold" font-size="14.00">BinOp</text>
</g>
<!-- module.Greeter.greet.Return.JoinedStr.FormattedValue4354909968&#45;&gt;module.Greeter.greet.Return.JoinedStr.FormattedValue.BinOp4354909904 -->
<g id="edge31" class="edge">
<title>module.Greeter.greet.Return.JoinedStr.FormattedValue4354909968&#45;&gt;module.Greeter.greet.Return.JoinedStr.FormattedValue.BinOp4354909904</title>
<path fill="none" stroke="black" d="M865.44,-324.8C865.68,-315.53 865.98,-303.86 866.26,-293.25"/>
<polygon fill="black" stroke="black" points="869.75,-293.52 866.51,-283.43 862.75,-293.34 869.75,-293.52"/>
</g>
<!-- module.Greeter.greet.Return.JoinedStr.FormattedValue.BinOp.&quot;!&quot;4354909328 -->
<g id="node33" class="node">
<title>module.Greeter.greet.Return.JoinedStr.FormattedValue.BinOp.&quot;!&quot;4354909328</title>
<polygon fill="none" stroke="black" points="757.75,-159.5 757.75,-208.5 826.25,-208.5 826.25,-159.5 757.75,-159.5"/>
<text text-anchor="start" x="765.75" y="-192.2" font-family="Times,serif" font-weight="bold" font-size="14.00">Constant</text>
<polyline fill="none" stroke="black" points="757.75,-184 826.25,-184"/>
<text text-anchor="start" x="783.75" y="-166.7" font-family="Times,serif" font-size="14.00">&quot;!&quot;</text>
</g>
<!-- module.Greeter.greet.Return.JoinedStr.FormattedValue.BinOp4354909904&#45;&gt;module.Greeter.greet.Return.JoinedStr.FormattedValue.BinOp.&quot;!&quot;4354909328 -->
<g id="edge32" class="edge">
<title>module.Greeter.greet.Return.JoinedStr.FormattedValue.BinOp4354909904&#45;&gt;module.Greeter.greet.Return.JoinedStr.FormattedValue.BinOp.&quot;!&quot;4354909328</title>
<path fill="none" stroke="black" d="M850.36,-245.3C842.34,-237.02 832.47,-226.82 823.14,-217.18"/>
<polygon fill="black" stroke="black" points="825.66,-214.75 816.19,-210 820.63,-219.62 825.66,-214.75"/>
</g>
<!-- module.Greeter.greet.Return.JoinedStr.FormattedValue.BinOp.Mult4351745872 -->
<g id="node34" class="node">
<title>module.Greeter.greet.Return.JoinedStr.FormattedValue.BinOp.Mult4351745872</title>
<polygon fill="none" stroke="black" points="844,-166 844,-202 898,-202 898,-166 844,-166"/>
<text text-anchor="start" x="856" y="-179.95" font-family="Times,serif" font-weight="bold" font-size="14.00">Mult</text>
</g>
<!-- module.Greeter.greet.Return.JoinedStr.FormattedValue.BinOp4354909904&#45;&gt;module.Greeter.greet.Return.JoinedStr.FormattedValue.BinOp.Mult4351745872 -->
<g id="edge33" class="edge">
<title>module.Greeter.greet.Return.JoinedStr.FormattedValue.BinOp4354909904&#45;&gt;module.Greeter.greet.Return.JoinedStr.FormattedValue.BinOp.Mult4351745872</title>
<path fill="none" stroke="black" d="M867.89,-245.3C868.37,-236.03 868.97,-224.36 869.52,-213.75"/>
<polygon fill="black" stroke="black" points="873,-214.1 870.02,-203.93 866.01,-213.74 873,-214.1"/>
</g>
<!-- module.Greeter.greet.Return.JoinedStr.FormattedValue.BinOp.enthusiasm4354909520 -->
<g id="node35" class="node">
<title>module.Greeter.greet.Return.JoinedStr.FormattedValue.BinOp.enthusiasm4354909520</title>
<polygon fill="none" stroke="black" points="916.25,-159.5 916.25,-208.5 993.75,-208.5 993.75,-159.5 916.25,-159.5"/>
<text text-anchor="start" x="928" y="-192.2" font-family="Times,serif" font-weight="bold" font-size="14.00">Attribute</text>
<polyline fill="none" stroke="black" points="916.25,-184 993.75,-184"/>
<text text-anchor="start" x="924.25" y="-166.7" font-family="Times,serif" font-size="14.00">enthusiasm</text>
</g>
<!-- module.Greeter.greet.Return.JoinedStr.FormattedValue.BinOp4354909904&#45;&gt;module.Greeter.greet.Return.JoinedStr.FormattedValue.BinOp.enthusiasm4354909520 -->
<g id="edge34" class="edge">
<title>module.Greeter.greet.Return.JoinedStr.FormattedValue.BinOp4354909904&#45;&gt;module.Greeter.greet.Return.JoinedStr.FormattedValue.BinOp.enthusiasm4354909520</title>
<path fill="none" stroke="black" d="M886.53,-245.3C896.21,-236.77 908.22,-226.2 919.46,-216.3"/>
<polygon fill="black" stroke="black" points="921.52,-219.15 926.71,-209.91 916.9,-213.89 921.52,-219.15"/>
</g>
<!-- module.Greeter.greet.Return.JoinedStr.FormattedValue.BinOp.enthusiasm.self4354909392 -->
<g id="node36" class="node">
<title>module.Greeter.greet.Return.JoinedStr.FormattedValue.BinOp.enthusiasm.self4354909392</title>
<polygon fill="none" stroke="black" points="892,-73.5 892,-122.5 946,-122.5 946,-73.5 892,-73.5"/>
<text text-anchor="start" x="901.5" y="-106.2" font-family="Times,serif" font-weight="bold" font-size="14.00">Name</text>
<polyline fill="none" stroke="black" points="892,-98 945.5,-98"/>
<text text-anchor="start" x="909" y="-80.7" font-family="Times,serif" font-size="14.00">self</text>
</g>
<!-- module.Greeter.greet.Return.JoinedStr.FormattedValue.BinOp.enthusiasm4354909520&#45;&gt;module.Greeter.greet.Return.JoinedStr.FormattedValue.BinOp.enthusiasm.self4354909392 -->
<g id="edge35" class="edge">
<title>module.Greeter.greet.Return.JoinedStr.FormattedValue.BinOp.enthusiasm4354909520&#45;&gt;module.Greeter.greet.Return.JoinedStr.FormattedValue.BinOp.enthusiasm.self4354909392</title>
<path fill="none" stroke="black" d="M944.78,-159.15C941.36,-151.17 937.48,-142.11 933.78,-133.48"/>
<polygon fill="black" stroke="black" points="937,-132.11 929.84,-124.3 930.56,-134.87 937,-132.11"/>
</g>
<!-- module.Greeter.greet.Return.JoinedStr.FormattedValue.BinOp.enthusiasm.Load4351744336 -->
<g id="node38" class="node">
<title>module.Greeter.greet.Return.JoinedStr.FormattedValue.BinOp.enthusiasm.Load4351744336</title>
<polygon fill="none" stroke="black" points="964,-80 964,-116 1018,-116 1018,-80 964,-80"/>
<text text-anchor="start" x="976" y="-93.95" font-family="Times,serif" font-weight="bold" font-size="14.00">Load</text>
</g>
<!-- module.Greeter.greet.Return.JoinedStr.FormattedValue.BinOp.enthusiasm4354909520&#45;&gt;module.Greeter.greet.Return.JoinedStr.FormattedValue.BinOp.enthusiasm.Load4351744336 -->
<g id="edge37" class="edge">
<title>module.Greeter.greet.Return.JoinedStr.FormattedValue.BinOp.enthusiasm4354909520&#45;&gt;module.Greeter.greet.Return.JoinedStr.FormattedValue.BinOp.enthusiasm.Load4351744336</title>
<path fill="none" stroke="black" d="M965.22,-159.15C969.54,-149.07 974.6,-137.27 979.09,-126.8"/>
<polygon fill="black" stroke="black" points="982.18,-128.46 982.91,-117.89 975.75,-125.7 982.18,-128.46"/>
</g>
<!-- module.Greeter.greet.Return.JoinedStr.FormattedValue.BinOp.enthusiasm.self.Load4351744336 -->
<g id="node37" class="node">
<title>module.Greeter.greet.Return.JoinedStr.FormattedValue.BinOp.enthusiasm.self.Load4351744336</title>
<polygon fill="none" stroke="black" points="892,-0.5 892,-36.5 946,-36.5 946,-0.5 892,-0.5"/>
<text text-anchor="start" x="904" y="-14.45" font-family="Times,serif" font-weight="bold" font-size="14.00">Load</text>
</g>
<!-- module.Greeter.greet.Return.JoinedStr.FormattedValue.BinOp.enthusiasm.self4354909392&#45;&gt;module.Greeter.greet.Return.JoinedStr.FormattedValue.BinOp.enthusiasm.self.Load4351744336 -->
<g id="edge36" class="edge">
<title>module.Greeter.greet.Return.JoinedStr.FormattedValue.BinOp.enthusiasm.self4354909392&#45;&gt;module.Greeter.greet.Return.JoinedStr.FormattedValue.BinOp.enthusiasm.self.Load4351744336</title>
<path fill="none" stroke="black" d="M919,-73.33C919,-65.43 919,-56.55 919,-48.3"/>
<polygon fill="black" stroke="black" points="922.5,-48.39 919,-38.39 915.5,-48.39 922.5,-48.39"/>
</g>
<!-- module.Greeter.greet.str.Load4351744336 -->
<g id="node40" class="node">
<title>module.Greeter.greet.str.Load4351744336</title>
<polygon fill="none" stroke="black" points="766,-411 766,-447 820,-447 820,-411 766,-411"/>
<text text-anchor="start" x="778" y="-424.95" font-family="Times,serif" font-weight="bold" font-size="14.00">Load</text>
</g>
<!-- module.Greeter.greet.str4354913552&#45;&gt;module.Greeter.greet.str.Load4351744336 -->
<g id="edge39" class="edge">
<title>module.Greeter.greet.str4354913552&#45;&gt;module.Greeter.greet.str.Load4351744336</title>
<path fill="none" stroke="black" d="M784.09,-498.49C785.69,-486.23 787.64,-471.19 789.32,-458.32"/>
<polygon fill="black" stroke="black" points="792.74,-459.14 790.56,-448.77 785.8,-458.23 792.74,-459.14"/>
</g>
</g>
</svg>
